<svg xmlns="http://www.w3.org/2000/svg" version="1.1" xmlns:xlink="http://www.w3.org/1999/xlink" xmlns:svgjs="http://svgjs.dev/svgjs" width="1000" height="1000" viewBox="0 0 1000 1000"><rect width="1000" height="1000" fill="#ffffff"></rect><g transform="matrix(0.7,0,0,0.7,149.57575757575756,282.1265587044535)"><svg viewBox="0 0 396 247" data-background-color="#28353b" preserveAspectRatio="xMidYMid meet" height="623" width="1000" xmlns="http://www.w3.org/2000/svg" xmlns:xlink="http://www.w3.org/1999/xlink"><g id="tight-bounds" transform="matrix(1,0,0,1,0.2400000000000091,-0.09999999999999432)"><svg viewBox="0 0 395.52 247.2" height="247.2" width="395.52"><g><svg></svg></g><g><svg viewBox="0 0 395.52 247.2" height="247.2" width="395.52"><mask id="e98a5d2c-c0e1-4c76-83f1-3fe64475ae93"><rect width="640" height="400" fill="white"></rect><rect width="348.05760000000004" height="45.04070415525249" fill="black" y="101.07964792237375" x="23.731199999999973" id="transform-me"></rect></mask><g transform="matrix(1,0,0,1,39.55199999999999,108.3024274139992)"><svg viewBox="0 0 316.416 30.595145172001594" height="30.595145172001594" width="316.416"><g><svg viewBox="0 0 316.416 30.595145172001594" height="30.595145172001594" width="316.416"><g><svg viewBox="0 0 316.416 30.595145172001594" height="30.595145172001594" width="316.416"><g><svg viewBox="0 0 316.416 30.595145172001594" height="30.595145172001594" width="316.416"><g id="textblocktransform"><svg viewBox="0 0 316.416 30.595145172001594" height="30.595145172001594" width="316.416" id="textblock"><g><svg viewBox="0 0 316.416 30.595145172001594" height="30.595145172001594" width="316.416"><g transform="matrix(1,0,0,1,0,0)"><svg width="316.416" viewBox="3.9000000953674316 -35.70000076293945 376.4200134277344 36.400001525878906" height="30.595145172001594" data-palette-color="#ffffff"><path d="M16.95 0L3.9 0 3.9-35 16.95-35Q21.98-35 25.89-32.91 29.8-30.83 32.02-26.91 34.25-23 34.25-17.5L34.25-17.5Q34.25-12 32.02-8.09 29.8-4.17 25.89-2.09 21.98 0 16.95 0L16.95 0ZM9.7-29.8L9.7-5.2 16.95-5.2Q20.58-5.2 23-6.71 25.43-8.22 26.66-10.99 27.9-13.75 27.9-17.5L27.9-17.5Q27.9-21.25 26.66-24.01 25.43-26.78 23-28.29 20.58-29.8 16.95-29.8L16.95-29.8 9.7-29.8ZM45.82 0L40.02 0 40.02-35 45.82-35 45.82-20.93 62.47-20.93 62.47-35 68.27-35 68.27 0 62.47 0 62.47-15.48 45.82-15.48 45.82 0ZM82 0L76.1 0 76.1-35 88.37-35Q92-35 94.72-33.86 97.45-32.73 98.95-30.38 100.45-28.03 100.45-24.38L100.45-24.38Q100.45-20.63 98.83-18.3 97.22-15.98 94.45-14.63L94.45-14.63 102.32 0 95.67 0 88.77-13.23Q88.7-13.23 88.65-13.23 88.6-13.23 88.52-13.23L88.52-13.23 82-13.23 82 0ZM82-30.05L82-18.18 87.27-18.18Q91.1-18.18 92.73-19.84 94.37-21.5 94.37-24.15L94.37-24.15Q94.37-26.95 92.75-28.5 91.12-30.05 87.42-30.05L87.42-30.05 82-30.05ZM121.07 0.7L121.07 0.7Q116.14 0.7 112.93-1.23 109.72-3.15 108.14-6.66 106.57-10.18 106.57-14.95L106.57-14.95 106.57-35 112.37-35 112.37-16.48Q112.37-14 112.72-11.88 113.07-9.75 113.98-8.15 114.89-6.55 116.62-5.66 118.34-4.78 121.07-4.78L121.07-4.78Q123.82-4.78 125.53-5.66 127.24-6.55 128.17-8.15 129.09-9.75 129.43-11.89 129.77-14.03 129.77-16.48L129.77-16.48 129.77-35 135.57-35 135.57-14.95Q135.57-10.18 133.99-6.66 132.42-3.15 129.21-1.23 125.99 0.7 121.07 0.7ZM157.29 0L151.62 0 139.14-35 145.06-35 155.12-6.4 153.76-6.4 163.87-35 169.79-35 157.29 0ZM195.09 0.7L195.09 0.7Q192.94 0.7 190.71 0.33 188.49-0.05 186.6-0.61 184.71-1.18 183.53-1.75L183.53-1.75 184.26-7.9Q185.86-7.13 187.76-6.41 189.66-5.7 191.75-5.24 193.84-4.78 195.96-4.78L195.96-4.78Q198.81-4.78 200.52-5.86 202.24-6.95 202.24-9.2L202.24-9.2Q202.24-10.93 201.31-12 200.39-13.08 198.51-13.89 196.64-14.7 193.76-15.65L193.76-15.65Q190.94-16.57 188.64-17.79 186.34-19 184.97-20.93 183.61-22.85 183.61-25.9L183.61-25.9Q183.61-28.75 185.03-30.98 186.46-33.2 189.28-34.45 192.11-35.7 196.26-35.7L196.26-35.7Q199.56-35.7 202.46-34.98 205.36-34.25 207.34-33.4L207.34-33.4 206.74-27.4Q203.84-28.85 201.25-29.55 198.66-30.25 195.94-30.25L195.94-30.25Q193.03-30.25 191.34-29.25 189.64-28.25 189.64-26.13L189.64-26.13Q189.64-24.55 190.51-23.58 191.39-22.6 193.02-21.9 194.66-21.2 197.03-20.48L197.03-20.48Q200.79-19.3 203.39-17.88 205.99-16.45 207.32-14.4 208.66-12.35 208.66-9.33L208.66-9.33Q208.66-7.58 208.06-5.79 207.46-4 205.95-2.54 204.44-1.07 201.79-0.19 199.14 0.7 195.09 0.7ZM219.86 0L214.06 0 214.06-35 219.86-35 219.86-20.93 236.51-20.93 236.51-35 242.31-35 242.31 0 236.51 0 236.51-15.48 219.86-15.48 219.86 0ZM269.16-13.85L269.16-8.72 254.38-8.72 254.38-13.85 269.16-13.85ZM271.33 0L261-29.33 262.56-29.33 252.21 0 246.46 0 258.93-35 264.61-35 277.11 0 271.33 0ZM287.1 0L281.2 0 281.2-35 293.48-35Q297.1-35 299.83-33.86 302.55-32.73 304.05-30.38 305.55-28.03 305.55-24.38L305.55-24.38Q305.55-20.63 303.94-18.3 302.33-15.98 299.55-14.63L299.55-14.63 307.43 0 300.78 0 293.88-13.23Q293.8-13.23 293.75-13.23 293.7-13.23 293.63-13.23L293.63-13.23 287.1-13.23 287.1 0ZM287.1-30.05L287.1-18.18 292.38-18.18Q296.2-18.18 297.84-19.84 299.48-21.5 299.48-24.15L299.48-24.15Q299.48-26.95 297.85-28.5 296.23-30.05 292.53-30.05L292.53-30.05 287.1-30.05ZM316.5 0L310.45 0 315.25-35 320.05-35 328.85-18.55 337.55-35 342.4-35 347.18 0 341.13 0 337.7-27.13 339.28-26.83 328.85-7.7 318.35-26.8 319.93-27.08 316.5 0ZM372.37-13.85L372.37-8.72 357.6-8.72 357.6-13.85 372.37-13.85ZM374.55 0L364.22-29.33 365.77-29.33 355.42 0 349.67 0 362.15-35 367.82-35 380.32 0 374.55 0Z" opacity="1" transform="matrix(1,0,0,1,0,0)" fill="#000000" class="wordmark-text-0" data-fill-palette-color="primary" id="text-0"></path></svg></g></svg></g></svg></g></svg></g><g></g></svg></g></svg></g></svg></g><g mask="url(#e98a5d2c-c0e1-4c76-83f1-3fe64475ae93)"><g transform="matrix(2.452, 0, 0, 2.452, 118.32378289794921, 1)"><svg xmlns="http://www.w3.org/2000/svg" xmlns:xlink="http://www.w3.org/1999/xlink" version="1.1" x="0" y="0" viewBox="17.604000091552734 0 64.79299926757812 100" enable-background="new 0 0 100 100" xml:space="preserve" height="100" width="64.79299926757812" class="icon-none" data-fill-palette-color="accent" id="none"><g fill="#fe6152" data-fill-palette-color="accent"><path d="M71.977 74.531c-3.544-2.51-3.837-3.838-3.837-5.751 0-1.914-0.591-3.691-2.065-5.166-1.47-1.475-3.838-6.201-3.838-18.157 0-11.955 3.545-19.184 3.545-19.184h8.412c0 0 2.358-20.371 4.424-25.979H67.7c0 0-0.737 5.315-0.737 8.267h-4.429V0h-9.888v8.415h-5.376V0h-9.892v8.562h-4.424c0-2.952-0.732-8.267-0.732-8.267H21.294c2.07 5.608 4.429 25.979 4.429 25.979h8.413c0 0 3.545 7.229 3.545 19.184 0 11.956-2.363 16.682-3.838 18.157s-2.07 3.252-2.07 5.166c0 1.913-0.293 3.241-3.838 5.751-3.535 2.51-7.231 4.873-7.231 8.857s3.843 4.287 5.464 4.287h47.582c1.621 0 5.464-0.303 5.464-4.287S75.517 77.041 71.977 74.531z" fill="#000000" data-fill-palette-color="accent"></path><g fill="#fe6152" data-fill-palette-color="accent"><path d="M21.148 100c-1.953 0-3.544-1.582-3.544-3.535l0 0c0-1.963 1.592-3.545 3.544-3.545l0 0h57.704c1.963 0 3.545 1.582 3.545 3.545l0 0c0 1.953-1.582 3.535-3.545 3.535l0 0H21.148L21.148 100z" fill="#000000" data-fill-palette-color="accent"></path></g></g></svg></g></g></svg></g><defs></defs></svg><rect width="395.52" height="247.2" fill="none" stroke="none" visibility="hidden"></rect></g></svg></g></svg>