<svg xmlns="http://www.w3.org/2000/svg" version="1.1" xmlns:xlink="http://www.w3.org/1999/xlink" xmlns:svgjs="http://svgjs.dev/svgjs" width="1000" height="623" viewBox="0 0 1000 623"><g transform="matrix(1,0,0,1,-0.6060606060606233,0.2522267206477409)"><svg viewBox="0 0 396 247" data-background-color="#000000" preserveAspectRatio="xMidYMid meet" height="623" width="1000" xmlns="http://www.w3.org/2000/svg" xmlns:xlink="http://www.w3.org/1999/xlink"><g id="tight-bounds" transform="matrix(1,0,0,1,0.2400000000000091,-0.09999999999999432)"><svg viewBox="0 0 395.52 247.2" height="247.2" width="395.52"><g><svg></svg></g><g><svg viewBox="0 0 395.52 247.2" height="247.2" width="395.52"><mask id="cad833d7-4978-4305-b2e9-bbe616242ec1"><rect width="640" height="400" fill="white"></rect><rect width="181.24579622641508" height="254.74118207999993" fill="black" y="-3.770591039999971" x="107.13710188679245" id="transform-me"></rect></mask><g transform="matrix(1,0,0,1,115.37554716981133,37.08000000000001)"><svg viewBox="0 0 164.76890566037733 173.03999999999996" height="173.03999999999996" width="164.76890566037733"><g><svg viewBox="0 0 164.76890566037733 173.03999999999996" height="173.03999999999996" width="164.76890566037733"><g><svg viewBox="0 0 164.76890566037733 173.03999999999996" height="173.03999999999996" width="164.76890566037733"><g><svg viewBox="0 0 164.76890566037733 173.03999999999996" height="173.03999999999996" width="164.76890566037733"><g id="textblocktransform"><svg viewBox="0 0 164.76890566037733 173.03999999999996" height="173.03999999999996" width="164.76890566037733" id="textblock"><g><svg viewBox="0 0 164.76890566037733 173.03999999999996" height="173.03999999999996" width="164.76890566037733"><g transform="matrix(1,0,0,1,0,0)"><svg width="164.76890566037733" viewBox="1.8300000429153442 -38.09000015258789 36.959999084472656 38.81999969482422" height="173.03999999999996" data-palette-color="#ff2d2d"><path d="M10.99 0.49L10.99 0.49Q9.38 0.49 8.13-0.29L8.13-0.29Q6.88 0.49 5.82 0.49 4.76 0.49 4.08 0.31 3.39 0.12 2.88-0.2L2.88-0.2Q1.83-0.83 1.83-1.78L1.83-1.78Q1.83-2.27 2.1-2.64L2.1-2.64Q2.64-2.22 3.47-2.22L3.47-2.22Q5.64-2.22 6.47-4.08L6.47-4.08 6.47-16.02Q6.47-17.14 6.01-17.68L6.01-17.68Q5.27-18.58 3.49-19.46L3.49-19.46Q5.15-20.21 5.64-20.8L5.64-20.8Q6.47-21.75 6.47-22.95L6.47-22.95 6.47-33.25Q5.64-35.13 3.47-35.13L3.47-35.13Q2.64-35.13 2.1-34.72L2.1-34.72Q1.83-35.08 1.83-35.56 1.83-36.04 2.11-36.45 2.39-36.87 2.88-37.16L2.88-37.16Q4-37.84 5.46-37.84 6.91-37.84 8.13-37.04L8.13-37.04Q9.4-37.84 10.83-37.84 12.26-37.84 13.48-37.23L13.48-37.23Q16.36-38.09 18.82-38.09 21.29-38.09 23.19-37.82 25.1-37.55 26.83-36.88 28.56-36.21 30.09-35.08 31.62-33.96 32.81-32.28L32.81-32.28Q35.35-28.74 36.06-22.9L36.06-22.9Q36.21-21.46 36.67-20.87L36.67-20.87Q37.45-19.92 38.79-19.46L38.79-19.46Q37.38-18.92 36.94-18.36L36.94-18.36Q36.21-17.43 36.06-16.02L36.06-16.02Q35.25-7.91 30.62-3.52L30.62-3.52Q26.15 0.73 19.02 0.73L19.02 0.73Q16.16 0.73 13.89-0.15L13.89-0.15Q12.79 0.49 10.99 0.49ZM15.45-34.25L15.45-3.83Q16.63-2.51 18.57-2.51 20.51-2.51 21.94-3.28 23.36-4.05 24.34-5.66L24.34-5.66Q26.32-8.96 26.32-16.02L26.32-16.02Q26.32-17.55 25.83-18.12L25.83-18.12Q25.17-18.9 23.66-19.46L23.66-19.46Q25.15-19.97 25.59-20.48L25.59-20.48Q26.32-21.36 26.32-22.72 26.32-24.07 26.12-25.42 25.93-26.76 25.5-28.08 25.07-29.39 24.43-30.6 23.78-31.81 22.88-32.74L22.88-32.74Q20.9-34.77 18.21-34.77L18.21-34.77Q17.38-34.77 16.6-34.73 15.82-34.69 15.45-34.25L15.45-34.25ZM27.59-30.52L27.59-30.52Q29.42-25.42 29.42-21.78L29.42-21.78Q29.42-20.53 29.21-20.31 29-20.09 28.76-19.92L28.76-19.92Q28.32-19.63 27.81-19.46L27.81-19.46Q29.27-18.8 29.35-18.19L29.35-18.19Q29.39-17.92 29.39-17.65L29.39-17.65 29.39-17.04Q29.39-13.75 28.71-10.66 28.03-7.57 27.69-6.47L27.69-6.47Q28.78-6.79 29.28-7.92 29.79-9.06 30.14-10.36 30.49-11.67 30.71-13.13L30.71-13.13Q31.2-16.14 31.2-19.41L31.2-19.41Q31.2-25.27 29.47-28.86L29.47-28.86Q28.71-30.27 27.59-30.52ZM8.81-9.64L8.81-6.47Q10.03-6.93 10.16-9.67L10.16-9.67Q10.3-12.4 10.3-17.24 10.3-22.07 10.29-23.67 10.28-25.27 10.25-26.25L10.25-26.25Q10.18-29.13 9.7-29.72 9.23-30.32 8.81-30.52L8.81-30.52Q8.81-22.02 8.52-20.85L8.52-20.85Q8.18-19.87 6.86-19.46L6.86-19.46Q8.33-18.95 8.52-18.21L8.52-18.21Q8.81-17.04 8.81-9.64L8.81-9.64Z" opacity="1" transform="matrix(1,0,0,1,0,0)" fill="#ff2d2d" class="wordmark-text-0" data-fill-palette-color="primary" id="text-0"></path></svg></g></svg></g></svg></g></svg></g><g></g></svg></g></svg></g></svg></g><g mask="url(#cad833d7-4978-4305-b2e9-bbe616242ec1)"><g transform="matrix(2.452, 0, 0, 2.452, 118.32378289794921, 1)"><svg xmlns="http://www.w3.org/2000/svg" xmlns:xlink="http://www.w3.org/1999/xlink" version="1.1" x="0" y="0" viewBox="17.604000091552734 0 64.79299926757812 100" enable-background="new 0 0 100 100" xml:space="preserve" height="100" width="64.79299926757812" class="icon-none" data-fill-palette-color="accent" id="none"><g fill="#fe6152" data-fill-palette-color="accent"><path d="M71.977 74.531c-3.544-2.51-3.837-3.838-3.837-5.751 0-1.914-0.591-3.691-2.065-5.166-1.47-1.475-3.838-6.201-3.838-18.157 0-11.955 3.545-19.184 3.545-19.184h8.412c0 0 2.358-20.371 4.424-25.979H67.7c0 0-0.737 5.315-0.737 8.267h-4.429V0h-9.888v8.415h-5.376V0h-9.892v8.562h-4.424c0-2.952-0.732-8.267-0.732-8.267H21.294c2.07 5.608 4.429 25.979 4.429 25.979h8.413c0 0 3.545 7.229 3.545 19.184 0 11.956-2.363 16.682-3.838 18.157s-2.07 3.252-2.07 5.166c0 1.913-0.293 3.241-3.838 5.751-3.535 2.51-7.231 4.873-7.231 8.857s3.843 4.287 5.464 4.287h47.582c1.621 0 5.464-0.303 5.464-4.287S75.517 77.041 71.977 74.531z" fill="#fe6152" data-fill-palette-color="accent"></path><g fill="#fe6152" data-fill-palette-color="accent"><path d="M21.148 100c-1.953 0-3.544-1.582-3.544-3.535l0 0c0-1.963 1.592-3.545 3.544-3.545l0 0h57.704c1.963 0 3.545 1.582 3.545 3.545l0 0c0 1.953-1.582 3.535-3.545 3.535l0 0H21.148L21.148 100z" fill="#fe6152" data-fill-palette-color="accent"></path></g></g></svg></g></g></svg></g><defs></defs></svg><rect width="395.52" height="247.2" fill="none" stroke="none" visibility="hidden"></rect></g></svg></g></svg>